<svg width="16" height="16" viewBox="0 0 16 16" fill="none" xmlns="http://www.w3.org/2000/svg">
<path d="M10.67 9.33V10.7944L11.74 11.46" stroke="#4F46E5" stroke-width="2" stroke-linecap="round" stroke-linejoin="round"/>
<path d="M10.67 1.33V4" stroke="#4F46E5" stroke-width="2" stroke-linecap="round" stroke-linejoin="round"/>
<path d="M14 5.00333V4.00333C14 3.26695 13.403 2.67 12.6667 2.67H3.33333C2.59695 2.67 2 3.26695 2 4.00333V13.3367C2 14.073 2.59695 14.67 3.33333 14.67H5.66667" stroke="#4F46E5" stroke-width="2" stroke-linecap="round" stroke-linejoin="round"/>
<path d="M2 6.67H5.33" stroke="#4F46E5" stroke-width="2" stroke-linecap="round" stroke-linejoin="round"/>
<path d="M5.33 1.33V4" stroke="#4F46E5" stroke-width="2" stroke-linecap="round" stroke-linejoin="round"/>
<path d="M6.67 10.67C6.67 8.46086 8.46086 6.67 10.67 6.67C12.8791 6.67 14.67 8.46086 14.67 10.67C14.67 12.8791 12.8791 14.67 10.67 14.67C8.46086 14.67 6.67 12.8791 6.67 10.67Z" stroke="#4F46E5" stroke-width="2" stroke-linecap="round" stroke-linejoin="round"/>
</svg>
